# xmcd
#
# Track frame offsets:
#	150
#	11235
#	21907
#	40783
#	53114
#	68235
#	90050
#	104282
#	127659
#	140010
#	156369
#
# Disc length: 2307 seconds
#
# Revision: 0
# Processed by: cddbd v1.5.1PL0 Copyright (c) Steve Scherf et al.
# Submitted via: audiograbber 1.82.02
#
DISCID=8709010b
DTITLE=Easy Rider - Ridin' Easy
DYEAR=1900
DGENRE=
TTITLE0=Boogie On My Mind
TTITLE1=Love To You
TTITLE2=Carefull Touch
TTITLE3=It's Up To You
TTITLE4=Love Will Bring It Back
TTITLE5=Out Of Gauge
TTITLE6=A Scene From The Movie
TTITLE7=Hopefull
TTITLE8=Ridin' Easy
TTITLE9=It's Loud Around
TTITLE10=We Know
EXTD=
EXTT0=
EXTT1=
EXTT2=
EXTT3=
EXTT4=
EXTT5=
EXTT6=
EXTT7=
EXTT8=
EXTT9=
EXTT10=
PLAYORDER=
